<svg version="1.1"
	 xmlns="http://www.w3.org/2000/svg" xmlns:xlink="http://www.w3.org/1999/xlink" xmlns:a="http://ns.adobe.com/AdobeSVGViewerExtensions/3.0/"
	 x="0px" y="0px" width="149px" height="50px" viewBox="-0.469 -0.502 149 50" enable-background="new -0.469 -0.502 149 50"
	 xml:space="preserve">
<defs>
</defs>
<g>
	<defs>
		<rect id="SVGID_1_" width="148" height="49.32"/>
	</defs>
	<clipPath id="SVGID_2_">
		<use xlink:href="#SVGID_1_"  overflow="visible"/>
	</clipPath>
	<path clip-path="url(#SVGID_2_)" fill="#3B6E8F" d="M62.541,16.827c1.102,0.102,1.903,0.135,2.671,0.135
		c0.901,0,3.037-0.033,4.44-1.235c1.034-0.901,1.468-2.203,1.468-3.605c0-0.566-0.033-2.236-1.368-3.37
		c-1.236-1.069-2.971-1.103-4.14-1.103h-3.071V16.827z M57.501,6.013h8.579c2.203,0,4.272,0.034,5.941,1.202
		c1.002,0.733,2.17,2.203,2.17,4.54c0,1.534-0.4,3.538-2.637,5.174c-2.169,1.602-4.74,1.769-6.442,1.769
		c-1.302,0-1.937-0.1-2.571-0.2v7.177c0,2.17,0.167,3.271,2.27,3.539v0.399h-7.31v-0.399c1.903-0.435,2.003-1.402,2.003-3.473V9.284
		c0-1.902-0.368-2.604-2.003-2.871V6.013z"/>
	<path clip-path="url(#SVGID_2_)" fill="#3B6E8F" d="M85.871,16.594h2.504c1.002,0,3.203-0.033,4.539-1.268
		c0.668-0.602,1.269-1.636,1.269-3.171c0-1.669-0.7-2.737-1.302-3.306c-1.268-1.135-2.67-1.135-3.738-1.135h-3.271V16.594z
		 M89.242,6.046c1.971,0,4.406,0,6.076,1.335c1.135,0.901,1.969,2.537,1.969,4.34c0,3.538-3.004,4.974-4.072,5.475l4.674,8.579
		c1.535,2.837,1.835,2.971,2.902,3.438v0.401h-1.334c-2.67,0-3.305-1.103-4.674-3.505l-4.405-8.045
		c-0.568,0.066-1.136,0.167-2.103,0.167h-2.404v7.409c0,2.504,0.166,3.038,2.236,3.572v0.401h-7.177v-0.401
		c1.937-0.399,1.97-1.201,1.97-3.438V9.718c0-1.97,0-2.971-2.003-3.271V6.046H89.242z"/>
	<path clip-path="url(#SVGID_2_)" fill="#3B6E8F" d="M113.44,6.013v0.4c-1.903,0.4-1.903,1.235-1.903,3.673v15.421
		c0,2.57,0.135,3.138,2.07,3.706v0.399h-7.076v-0.399c2.036-0.501,2.069-1.235,2.102-3.706V10.086c0-2.171,0-3.405-2.168-3.673v-0.4
		H113.44z"/>
	<path clip-path="url(#SVGID_2_)" fill="#3B6E8F" d="M144.896,18.063c0-5.308-3.037-10.949-9.515-10.949
		c-5.207,0-9.445,3.938-9.445,10.549c0,5.641,3.672,11.048,9.779,11.048C140.623,28.711,144.896,25.04,144.896,18.063
		 M144.729,26.575c-2.57,2.738-5.641,3.739-9.348,3.739c-8.076,0-12.449-5.875-12.449-12.284c0-7.646,5.975-12.686,12.751-12.686
		c7.444,0,12.317,5.741,12.317,12.719C148,20.299,147.532,23.571,144.729,26.575"/>
	<path clip-path="url(#SVGID_2_)" fill="#3B6E8F" d="M67.195,36.744v0.121c-0.522,0.109-0.592,0.311-0.874,1.054l-2.158,6.014h-0.09
		l-1.767-4.8l-1.717,4.8h-0.101l-2.148-5.864c-0.361-0.973-0.482-1.104-0.913-1.203v-0.121h2.148v0.121
		c-0.201,0.02-0.482,0.06-0.482,0.41c0,0.121,0.02,0.191,0.13,0.562l1.476,4.408l1.335-3.887l-0.2-0.562
		c-0.211-0.552-0.361-0.854-0.824-0.933v-0.121h2.139v0.121c-0.141,0.01-0.472,0.04-0.472,0.421c0,0.081,0.01,0.211,0.131,0.593
		l1.476,4.367l1.485-4.417c0.091-0.263,0.131-0.402,0.131-0.554c0-0.331-0.261-0.381-0.452-0.41v-0.121H67.195z"/>
	<path clip-path="url(#SVGID_2_)" fill="#3B6E8F" d="M78.489,42.326c0,0.411,0.011,0.713,0.201,0.883
		c0.16,0.131,0.431,0.142,1.074,0.142h0.935c0.782-0.011,0.902-0.051,1.084-0.634h0.119v1.125h-4.898v-0.12
		c0.572-0.12,0.592-0.422,0.592-0.692v-5.121c0-0.452,0-0.582-0.061-0.713c-0.119-0.271-0.392-0.301-0.552-0.321v-0.12h4.317
		l-0.021,1.084h-0.12c-0.111-0.481-0.271-0.602-0.854-0.602h-1.817v2.569h1.656c0.433,0,0.724-0.09,0.804-0.612h0.12v1.696h-0.12
		c-0.131-0.581-0.402-0.592-0.834-0.592h-1.626V42.326z"/>
	<path clip-path="url(#SVGID_2_)" fill="#3B6E8F" d="M93.99,40.75h2.119l-1.035-2.45L93.99,40.75z M97.855,42.628
		c0.301,0.701,0.402,0.934,0.895,1.114v0.101h-2.159v-0.121c0.241-0.021,0.522-0.13,0.522-0.451c0-0.121-0.121-0.392-0.182-0.533
		l-0.622-1.506h-2.56l-0.604,1.396c-0.09,0.211-0.211,0.502-0.211,0.651c0,0.222,0.172,0.393,0.452,0.442v0.121h-1.747v-0.121
		c0.442-0.07,0.582-0.341,0.824-0.883l2.761-6.186h0.091L97.855,42.628z"/>
	<path clip-path="url(#SVGID_2_)" fill="#3B6E8F" d="M110.727,36.744v0.121c-0.592,0.119-0.604,0.351-0.604,1.124v4.356
		c0,0.332,0.012,0.623,0.121,0.773c0.16,0.24,0.432,0.24,0.823,0.24h1.386c0.643,0,0.924-0.029,1.064-0.632h0.119v1.114h-5.069
		v-0.12c0.632-0.161,0.632-0.422,0.632-1.366v-4.356c0-0.793-0.039-0.994-0.643-1.134v-0.121H110.727z"/>
	<path clip-path="url(#SVGID_2_)" fill="#3B6E8F" d="M127.863,36.754v1.074h-0.119c-0.082-0.532-0.362-0.572-0.805-0.572h-1.556
		v5.683c0,0.603,0.321,0.693,0.643,0.783v0.12h-2.169v-0.12c0.342-0.081,0.623-0.181,0.623-0.844v-5.643h-1.445
		c-0.613,0-0.824,0.132-0.904,0.612h-0.12v-1.094H127.863z"/>
	<path clip-path="url(#SVGID_2_)" fill="#3B6E8F" d="M144.619,36.744v0.121c-0.582,0.13-0.602,0.36-0.602,1.054v4.688
		c0,0.733,0.02,0.964,0.611,1.114v0.12h-2.067v-0.12c0.571-0.101,0.582-0.362,0.582-1.014v-2.38h-3.945v2.279
		c0,0.742,0,0.964,0.593,1.114v0.12h-2.068v-0.12c0.562-0.111,0.592-0.362,0.592-1.114v-4.83c0-0.491,0-0.812-0.592-0.912v-0.121
		h2.068v0.121c-0.562,0.109-0.593,0.331-0.593,0.964v1.997h3.945v-1.917c0-0.693-0.021-0.944-0.582-1.044v-0.121H144.619z"/>
	<path clip-path="url(#SVGID_2_)" fill="#00A8CB" d="M24.66,0.001C11.062,0.001,0,11.063,0,24.661c0,1.301,0.103,2.577,0.298,3.825
		c0,0,25.405,0.004,26.443-0.005c1.823-0.015,5.29-0.546,7.945-2.923c0.872-0.753,1.546-1.664,2.022-2.735
		c0.396-0.95,0.594-2.021,0.594-3.091c0-2.853-1.308-5.548-4.478-6.736c-1.784-0.636-3.408-0.675-5.271-0.675H15.347v0.596
		c2.18,0.316,2.417,1.387,2.417,3.21v7.262h5.588v-8.055h3.091c1.348,0,5.231,0.119,5.231,4.636c0,3.092-1.902,4.96-5.706,4.96
		c-0.721,0-18.587,0.022-21.621-0.018c-0.001-0.084-0.007-0.167-0.007-0.251c0-11.204,9.116-20.32,20.32-20.32
		s20.319,9.116,20.319,20.32c0,10.796-8.464,19.648-19.104,20.279c-2.068-0.113-2.523-1.248-2.523-3.578V30.017h-5.588v10.791
		c0,2.364-0.578,2.649-1.159,2.503c-5.603-2.432-9.904-7.316-11.54-13.294H0.593C3.046,41.046,12.902,49.32,24.66,49.32
		c13.597,0,24.659-11.062,24.659-24.659C49.319,11.063,38.257,0.001,24.66,0.001"/>
</g>
</svg>
