<?xml version="1.0" encoding="utf-8"?>
<!-- Generator: Adobe Illustrator 14.0.0, SVG Export Plug-In  -->
<!DOCTYPE svg PUBLIC "-//W3C//DTD SVG 1.1//EN" "http://www.w3.org/Graphics/SVG/1.1/DTD/svg11.dtd" [
	<!ENTITY ns_flows "http://ns.adobe.com/Flows/1.0/">
]>
<svg version="1.1"
	 xmlns="http://www.w3.org/2000/svg" xmlns:xlink="http://www.w3.org/1999/xlink" xmlns:a="http://ns.adobe.com/AdobeSVGViewerExtensions/3.0/"
	 x="0px" y="0px" width="409px" height="69px" viewBox="-0.378 -0.355 409 69" enable-background="new -0.378 -0.355 409 69"
	 xml:space="preserve">
<defs>
</defs>
<path fill="#3B6E8F" d="M86.431,23.253c1.523,0.141,2.63,0.187,3.69,0.187c1.246,0,4.198-0.046,6.137-1.708
	c1.429-1.245,2.029-3.045,2.029-4.982c0-0.783-0.045-3.091-1.891-4.658c-1.708-1.478-4.106-1.523-5.721-1.523h-4.245V23.253z
	 M79.466,8.308h11.855c3.045,0,5.904,0.047,8.21,1.662c1.384,1.014,2.999,3.044,2.999,6.274c0,2.12-0.552,4.89-3.644,7.15
	c-2.997,2.213-6.55,2.444-8.902,2.444c-1.8,0-2.677-0.138-3.553-0.277v9.919c0,2.998,0.231,4.521,3.137,4.891v0.552H79.466V40.37
	c2.63-0.601,2.768-1.938,2.768-4.799V12.829c0-2.628-0.508-3.598-2.768-3.968V8.308z"/>
<path fill="#3B6E8F" d="M118.674,22.931h3.459c1.384,0,4.428-0.046,6.274-1.751c0.922-0.832,1.752-2.261,1.752-4.383
	c0-2.306-0.967-3.783-1.799-4.568c-1.752-1.568-3.69-1.568-5.167-1.568h-4.52V22.931z M123.332,8.354c2.723,0,6.09,0,8.396,1.845
	c1.568,1.246,2.722,3.506,2.722,5.998c0,4.89-4.151,6.874-5.628,7.566l6.459,11.857c2.122,3.92,2.536,4.105,4.012,4.75v0.555h-1.846
	c-3.69,0-4.566-1.524-6.458-4.844l-6.089-11.118c-0.786,0.092-1.569,0.231-2.907,0.231h-3.321v10.239
	c0,3.461,0.229,4.199,3.09,4.938v0.555h-9.919v-0.555c2.676-0.552,2.723-1.661,2.723-4.75v-22.19c0-2.723,0-4.106-2.769-4.52V8.354
	H123.332z"/>
<path fill="#3B6E8F" d="M156.773,8.308v0.553c-2.629,0.554-2.629,1.708-2.629,5.077v21.311c0,3.552,0.185,4.336,2.86,5.122v0.552
	h-9.778V40.37c2.813-0.692,2.859-1.708,2.905-5.122V13.938c0-3.001,0-4.707-2.998-5.077V8.308H156.773z"/>
<path fill="#3B6E8F" d="M200.244,24.962c0-7.335-4.197-15.131-13.149-15.131c-7.196,0-13.053,5.442-13.053,14.578
	c0,7.795,5.074,15.268,13.516,15.268C194.339,39.676,200.244,34.603,200.244,24.962 M200.013,36.725
	c-3.552,3.785-7.795,5.168-12.918,5.168c-11.162,0-17.206-8.119-17.206-16.977c0-10.566,8.258-17.532,17.623-17.532
	c10.288,0,17.023,7.935,17.023,17.578C204.535,28.051,203.888,32.574,200.013,36.725"/>
<path fill="#3B6E8F" d="M92.863,50.778v0.167c-0.722,0.152-0.818,0.429-1.207,1.457l-2.983,8.311h-0.124l-2.442-6.633l-2.373,6.633
	h-0.139l-2.968-8.105c-0.5-1.344-0.667-1.525-1.262-1.663v-0.167h2.969v0.167c-0.278,0.027-0.666,0.083-0.666,0.567
	c0,0.167,0.027,0.264,0.179,0.777l2.041,6.092l1.845-5.372l-0.276-0.775c-0.292-0.763-0.499-1.18-1.139-1.29v-0.167h2.956v0.167
	c-0.195,0.014-0.652,0.056-0.652,0.583c0,0.112,0.014,0.291,0.181,0.819l2.04,6.035l2.052-6.104
	c0.125-0.363,0.181-0.557,0.181-0.765c0-0.458-0.36-0.527-0.624-0.567v-0.167H92.863z"/>
<path fill="#3B6E8F" d="M108.471,58.493c0,0.568,0.015,0.985,0.278,1.22c0.222,0.182,0.596,0.195,1.485,0.195h1.291
	c1.082-0.014,1.248-0.069,1.498-0.875h0.166v1.554h-6.77v-0.166c0.791-0.167,0.818-0.583,0.818-0.958v-7.077
	c0-0.625,0-0.804-0.083-0.985c-0.167-0.374-0.542-0.416-0.764-0.444v-0.167h5.966l-0.027,1.499h-0.167
	c-0.153-0.666-0.373-0.832-1.179-0.832h-2.512v3.551h2.289c0.597,0,1-0.124,1.111-0.846h0.166v2.344h-0.166
	c-0.181-0.803-0.556-0.818-1.152-0.818h-2.248V58.493z"/>
<path fill="#3B6E8F" d="M129.894,56.314h2.927l-1.429-3.386L129.894,56.314z M135.236,58.909c0.416,0.97,0.556,1.291,1.236,1.54
	v0.139h-2.984v-0.167c0.333-0.028,0.721-0.18,0.721-0.624c0-0.167-0.166-0.542-0.25-0.737l-0.86-2.081h-3.537l-0.833,1.929
	c-0.125,0.292-0.292,0.694-0.292,0.901c0,0.307,0.237,0.542,0.625,0.611v0.167h-2.415v-0.167c0.611-0.097,0.804-0.471,1.139-1.221
	l3.815-8.547h0.125L135.236,58.909z"/>
<path fill="#3B6E8F" d="M153.022,50.778v0.167c-0.817,0.165-0.832,0.484-0.832,1.554v6.02c0,0.459,0.015,0.861,0.167,1.069
	c0.221,0.332,0.596,0.332,1.138,0.332h1.915c0.888,0,1.276-0.041,1.471-0.873h0.166v1.54h-7.007v-0.166
	c0.874-0.223,0.874-0.583,0.874-1.888v-6.02c0-1.097-0.054-1.375-0.887-1.568v-0.167H153.022z"/>
<path fill="#3B6E8F" d="M176.707,50.792v1.484h-0.167c-0.112-0.735-0.499-0.791-1.111-0.791h-2.149v7.854
	c0,0.833,0.443,0.958,0.888,1.083v0.166h-2.998v-0.166c0.472-0.112,0.861-0.25,0.861-1.166v-7.798h-1.998
	c-0.848,0-1.139,0.183-1.25,0.846h-0.166v-1.512H176.707z"/>
<path fill="#3B6E8F" d="M199.863,50.778v0.167c-0.804,0.18-0.832,0.499-0.832,1.457v6.479c0,1.013,0.028,1.332,0.846,1.54v0.166
	h-2.858v-0.166c0.791-0.139,0.805-0.501,0.805-1.401v-3.289h-5.452v3.15c0,1.026,0,1.332,0.818,1.54v0.166h-2.858v-0.166
	c0.777-0.154,0.819-0.501,0.819-1.54v-6.675c0-0.679,0-1.124-0.819-1.261v-0.167h2.858v0.167c-0.777,0.152-0.818,0.458-0.818,1.333
	v2.76h5.452v-2.65c0-0.958-0.028-1.305-0.805-1.442v-0.167H199.863z"/>
<path fill="#00A8CB" d="M34.079,0C15.287,0,0,15.288,0,34.079c0,1.798,0.143,3.562,0.412,5.287c0,0,35.109,0.005,36.543-0.007
	c2.521-0.02,7.312-0.754,10.981-4.039c1.205-1.041,2.136-2.3,2.794-3.78c0.547-1.313,0.821-2.792,0.821-4.271
	c0-3.942-1.808-7.667-6.189-9.309c-2.464-0.879-4.709-0.933-7.284-0.933H21.209v0.823c3.013,0.437,3.34,1.916,3.34,4.437v10.035
	h7.723V21.189h4.272c1.863,0,7.229,0.165,7.229,6.407c0,4.272-2.627,6.854-7.885,6.854c-0.997,0-25.687,0.031-29.88-0.024
	c-0.001-0.115-0.009-0.231-0.009-0.347c0-15.483,12.598-28.082,28.082-28.082c15.484,0,28.082,12.599,28.082,28.082
	c0,14.92-11.698,27.155-26.402,28.027c-2.858-0.157-3.487-1.725-3.487-4.945V41.481h-7.723v14.912c0,3.268-0.798,3.662-1.601,3.46
	C15.205,56.492,9.26,49.742,7,41.481H0.819C4.21,56.723,17.83,68.159,34.079,68.159c18.792,0,34.079-15.288,34.079-34.08
	C68.158,15.288,52.871,0,34.079,0"/>
<path fill="#00A8CB" d="M258.356,30.353c0.751,0.715,1.127,1.744,1.127,3.085c0,1.577-0.468,2.815-1.404,3.714
	c-0.937,0.899-2.23,1.349-3.881,1.349h-1.681v0.553l0.089,4.422h-1.791l0.11-4.268l-0.11-9.906l4.333-0.022
	C256.535,29.281,257.604,29.638,258.356,30.353z M256.952,35.958c0.479-0.589,0.719-1.378,0.719-2.366
	c0-1.828-0.973-2.779-2.919-2.853l-2.145,0.066l-0.066,6.213l2.322,0.044C255.776,36.917,256.473,36.548,256.952,35.958z"/>
<path fill="#00A8CB" d="M266.957,33.372v1.703l-0.199,0.066c-0.251-0.074-0.523-0.111-0.818-0.111c-0.486,0-0.932,0.196-1.337,0.586
	c-0.406,0.391-0.808,1.014-1.205,1.869l-0.022,1.548l0.11,4.444h-1.746l0.109-4.29l-0.088-5.727l1.658-0.155l-0.021,2.079h0.132
	c0.413-0.737,0.87-1.264,1.371-1.581s0.995-0.476,1.481-0.476C266.559,33.327,266.75,33.342,266.957,33.372z"/>
<path fill="#00A8CB" d="M270.518,29.082c0.177,0.177,0.266,0.42,0.266,0.73c0,0.324-0.093,0.583-0.276,0.774
	c-0.185,0.192-0.439,0.288-0.764,0.288c-0.31,0-0.549-0.089-0.718-0.266c-0.17-0.177-0.255-0.427-0.255-0.752
	c0-0.31,0.092-0.56,0.276-0.751s0.438-0.288,0.763-0.288C270.104,28.816,270.341,28.905,270.518,29.082z M268.992,39.187
	l-0.066-5.727l1.702-0.155l-0.044,5.727l0.044,4.444h-1.725L268.992,39.187z"/>
<path fill="#00A8CB" d="M281.208,34.51c0.759,0.892,1.139,2.148,1.139,3.77c0,1.71-0.397,3.033-1.193,3.969
	c-0.797,0.936-1.932,1.404-3.405,1.404c-1.386,0-2.459-0.445-3.218-1.337c-0.76-0.892-1.139-2.148-1.139-3.771
	c0-1.709,0.401-3.033,1.205-3.969s1.942-1.404,3.416-1.404C279.384,33.172,280.448,33.619,281.208,34.51z M275.779,35.361
	c-0.486,0.634-0.729,1.563-0.729,2.786c0,1.416,0.239,2.477,0.719,3.184c0.479,0.708,1.176,1.062,2.09,1.062
	c0.929,0,1.636-0.31,2.122-0.929c0.487-0.619,0.73-1.548,0.73-2.786c0-1.4-0.24-2.461-0.719-3.184
	c-0.479-0.722-1.176-1.083-2.09-1.083C276.974,34.411,276.267,34.728,275.779,35.361z"/>
<path fill="#00A8CB" d="M290.086,33.372v1.703l-0.199,0.066c-0.251-0.074-0.523-0.111-0.818-0.111c-0.486,0-0.932,0.196-1.337,0.586
	c-0.406,0.391-0.808,1.014-1.205,1.869l-0.022,1.548l0.11,4.444h-1.747l0.111-4.29l-0.089-5.727l1.658-0.155l-0.021,2.079h0.132
	c0.413-0.737,0.87-1.264,1.371-1.581s0.995-0.476,1.481-0.476C289.688,33.327,289.879,33.342,290.086,33.372z"/>
<path fill="#00A8CB" d="M293.646,29.082c0.177,0.177,0.266,0.42,0.266,0.73c0,0.324-0.093,0.583-0.276,0.774
	c-0.185,0.192-0.439,0.288-0.764,0.288c-0.31,0-0.549-0.089-0.718-0.266c-0.17-0.177-0.255-0.427-0.255-0.752
	c0-0.31,0.092-0.56,0.276-0.751s0.438-0.288,0.763-0.288C293.232,28.816,293.469,28.905,293.646,29.082z M292.12,39.187
	l-0.066-5.727l1.702-0.155l-0.044,5.727l0.044,4.444h-1.725L292.12,39.187z"/>
<path fill="#00A8CB" d="M302.136,41.686l0.199,0.133l-0.177,1.149c-0.796,0.369-1.533,0.583-2.211,0.642
	c-0.841-0.162-1.445-0.472-1.813-0.929c-0.369-0.457-0.553-1.12-0.553-1.99l0.066-1.57l-0.022-4.577h-1.393l-0.089-0.133l0.11-1.039
	h1.349v-1.636l1.526-0.664l0.177,0.155l-0.044,2.145h3.007l0.089,0.132l-0.111,1.04h-2.984l-0.111,5.992
	c-0.015,0.59,0.089,1.002,0.31,1.238c0.222,0.236,0.583,0.354,1.084,0.354C301.03,42.128,301.561,41.98,302.136,41.686z"/>
<path fill="#00A8CB" d="M306.05,29.082c0.177,0.177,0.266,0.42,0.266,0.73c0,0.324-0.093,0.583-0.276,0.774
	c-0.185,0.192-0.439,0.288-0.764,0.288c-0.31,0-0.549-0.089-0.718-0.266c-0.17-0.177-0.255-0.427-0.255-0.752
	c0-0.31,0.092-0.56,0.276-0.751s0.438-0.288,0.763-0.288C305.637,28.816,305.873,28.905,306.05,29.082z M304.524,39.187
	l-0.066-5.727l1.702-0.155l-0.044,5.727l0.044,4.444h-1.725L304.524,39.187z"/>
<path fill="#00A8CB" d="M310.848,33.349h4.533l0.84-0.022l0.044,1.062l-5.66,7.85h4.002l1.658-0.155l0.111,0.155l-0.155,1.283
	l-2.034-0.044h-4.423l-1.039,0.044v-1.062l5.683-7.894h-3.825l-1.569,0.177l-0.133-0.155l0.154-1.282L310.848,33.349z"/>
<path fill="#00A8CB" d="M319.383,38.347v0.044c0,1.238,0.279,2.189,0.84,2.853c0.56,0.664,1.356,0.995,2.388,0.995
	c0.517,0,1.032-0.084,1.548-0.254c0.517-0.169,0.987-0.409,1.415-0.719l0.178,0.133l-0.266,1.504
	c-1.032,0.501-2.064,0.751-3.096,0.751c-1.445,0-2.58-0.46-3.405-1.382c-0.826-0.921-1.238-2.185-1.238-3.792
	c0-1.622,0.412-2.911,1.238-3.87c0.825-0.958,1.938-1.438,3.339-1.438c1.179,0,2.093,0.335,2.742,1.006
	c0.648,0.671,0.973,1.603,0.973,2.797c0,0.398-0.029,0.774-0.089,1.128l-0.221,0.221L319.383,38.347z M320.477,35.129
	c-0.494,0.479-0.821,1.153-0.983,2.023l4.887-0.088l0.044-0.31c0-0.751-0.181-1.33-0.542-1.736
	c-0.361-0.405-0.881-0.608-1.559-0.608C321.586,34.411,320.971,34.65,320.477,35.129z"/>
<path fill="#00A8CB" d="M337.116,39.342l0.044,4.135h-1.747l0.089-4.135l-0.022-0.929l-4.488-9.11h1.901l0.287,0.796l3.096,6.368
	h0.155l3.405-6.324l0.331-0.84h1.857l-4.887,9.044L337.116,39.342z"/>
<path fill="#00A8CB" d="M349.687,34.51c0.759,0.892,1.139,2.148,1.139,3.77c0,1.71-0.397,3.033-1.193,3.969
	c-0.797,0.936-1.932,1.404-3.405,1.404c-1.386,0-2.459-0.445-3.218-1.337c-0.76-0.892-1.139-2.148-1.139-3.771
	c0-1.709,0.401-3.033,1.205-3.969s1.942-1.404,3.416-1.404C347.862,33.172,348.927,33.619,349.687,34.51z M344.258,35.361
	c-0.486,0.634-0.729,1.563-0.729,2.786c0,1.416,0.239,2.477,0.719,3.184c0.479,0.708,1.176,1.062,2.09,1.062
	c0.929,0,1.636-0.31,2.122-0.929c0.487-0.619,0.73-1.548,0.73-2.786c0-1.4-0.24-2.461-0.719-3.184
	c-0.479-0.722-1.176-1.083-2.09-1.083C345.452,34.411,344.745,34.728,344.258,35.361z"/>
<path fill="#00A8CB" d="M362.634,42.172l-0.177,0.995c-0.428,0.251-0.848,0.398-1.261,0.442c-0.428-0.059-0.771-0.21-1.028-0.454
	c-0.258-0.243-0.438-0.608-0.542-1.094h-0.132c-0.885,0.796-1.799,1.312-2.742,1.548c-1.091,0-1.92-0.258-2.487-0.774
	c-0.568-0.516-0.845-1.253-0.829-2.211l0.021-2.808l-0.066-4.356l1.77-0.155l-0.133,6.899c0,0.604,0.144,1.076,0.431,1.415
	c0.288,0.339,0.711,0.509,1.271,0.509c0.914,0,1.828-0.442,2.742-1.327V33.46l1.681-0.155l-0.11,8.004
	c0,0.31,0.047,0.527,0.144,0.652c0.096,0.125,0.262,0.188,0.497,0.188c0.236,0,0.494-0.044,0.774-0.133L362.634,42.172z"/>
<path fill="#00A8CB" d="M369.842,33.372v1.703l-0.199,0.066c-0.251-0.074-0.523-0.111-0.818-0.111c-0.486,0-0.932,0.196-1.337,0.586
	c-0.406,0.391-0.808,1.014-1.205,1.869l-0.022,1.548l0.11,4.444h-1.747l0.111-4.29l-0.089-5.727l1.658-0.155l-0.021,2.079h0.132
	c0.413-0.737,0.87-1.264,1.371-1.581s0.995-0.476,1.481-0.476C369.443,33.327,369.635,33.342,369.842,33.372z"/>
<path fill="#00A8CB" d="M382.776,42.15l-0.154,1.327h-6.987l0.11-4.268l-0.11-9.906h1.813l-0.111,9.751l0.066,2.941h5.241
	L382.776,42.15z"/>
<path fill="#00A8CB" d="M386.248,29.082c0.177,0.177,0.266,0.42,0.266,0.73c0,0.324-0.093,0.583-0.276,0.774
	c-0.185,0.192-0.439,0.288-0.764,0.288c-0.31,0-0.549-0.089-0.718-0.266c-0.17-0.177-0.255-0.427-0.255-0.752
	c0-0.31,0.092-0.56,0.276-0.751s0.438-0.288,0.763-0.288C385.835,28.816,386.071,28.905,386.248,29.082z M384.723,39.187
	l-0.066-5.727l1.702-0.155l-0.044,5.727l0.044,4.444h-1.725L384.723,39.187z"/>
<path fill="#00A8CB" d="M395.933,28.109L395.8,29.48l-0.133,0.11c-0.53-0.265-1.068-0.398-1.614-0.398
	c-0.574,0-1.017,0.181-1.326,0.542c-0.31,0.361-0.473,0.896-0.486,1.603l-0.022,2.035h2.653l0.066,0.132l-0.11,1.04h-2.632
	l-0.044,4.489l0.11,4.444h-1.747l0.133-4.312l-0.044-4.621h-1.525l-0.089-0.133l0.11-1.039h1.504l-0.022-1.769
	c-0.015-1.194,0.295-2.108,0.929-2.742s1.533-0.951,2.698-0.951C394.738,27.91,395.313,27.976,395.933,28.109z"/>
<path fill="#00A8CB" d="M397.083,38.347v0.044c0,1.238,0.279,2.189,0.84,2.853c0.56,0.664,1.356,0.995,2.388,0.995
	c0.517,0,1.032-0.084,1.548-0.254c0.517-0.169,0.987-0.409,1.415-0.719l0.178,0.133l-0.266,1.504
	c-1.032,0.501-2.064,0.751-3.096,0.751c-1.445,0-2.58-0.46-3.405-1.382c-0.826-0.921-1.238-2.185-1.238-3.792
	c0-1.622,0.412-2.911,1.238-3.87c0.825-0.958,1.938-1.438,3.339-1.438c1.179,0,2.093,0.335,2.742,1.006
	c0.648,0.671,0.973,1.603,0.973,2.797c0,0.398-0.029,0.774-0.089,1.128l-0.221,0.221L397.083,38.347z M398.177,35.129
	c-0.494,0.479-0.821,1.153-0.983,2.023l4.887-0.088l0.044-0.31c0-0.751-0.181-1.33-0.542-1.736
	c-0.361-0.405-0.881-0.608-1.559-0.608C399.286,34.411,398.671,34.65,398.177,35.129z"/>
<path fill="#00A8CB" d="M407.298,41.796c0.177,0.177,0.266,0.42,0.266,0.73c0,0.324-0.093,0.583-0.276,0.774
	c-0.185,0.191-0.439,0.287-0.763,0.287c-0.31,0-0.55-0.088-0.719-0.265c-0.17-0.177-0.255-0.427-0.255-0.752
	c0-0.31,0.092-0.56,0.276-0.751s0.438-0.288,0.764-0.288C406.885,41.531,407.121,41.619,407.298,41.796z"/>
<line fill="none" stroke="#8EA9C2" stroke-width="0.5" x1="227.337" y1="3.676" x2="227.337" y2="64.483"/>
</svg>
