<?xml version="1.0" encoding="utf-8"?>
<!-- Generator: Adobe Illustrator 14.0.0, SVG Export Plug-In  -->
<!DOCTYPE svg PUBLIC "-//W3C//DTD SVG 1.1//EN" "http://www.w3.org/Graphics/SVG/1.1/DTD/svg11.dtd" [
	<!ENTITY ns_flows "http://ns.adobe.com/Flows/1.0/">
]>
<svg version="1.1"
	 xmlns="http://www.w3.org/2000/svg" xmlns:xlink="http://www.w3.org/1999/xlink" xmlns:a="http://ns.adobe.com/AdobeSVGViewerExtensions/3.0/"
	 x="0px" y="0px" width="92px" height="92px" viewBox="-0.533 -0.503 92 92" enable-background="new -0.533 -0.503 92 92"
	 xml:space="preserve">
<defs>
</defs>
<path fill="#00A8CB" d="M45.393,0C20.362,0,0,20.363,0,45.393c0,2.396,0.19,4.744,0.549,7.042c0,0,46.764,0.007,48.674-0.01
	c3.356-0.026,9.738-1.003,14.626-5.38c1.605-1.386,2.846-3.063,3.721-5.035c0.729-1.749,1.093-3.719,1.093-5.69
	c0-5.251-2.407-10.211-8.243-12.398c-3.283-1.171-6.273-1.244-9.702-1.244H28.25v1.098c4.013,0.582,4.448,2.552,4.448,5.909V43.05
	h10.286V28.223h5.691c2.482,0,9.628,0.221,9.628,8.535c0,5.691-3.5,9.129-10.502,9.129c-1.33,0-34.215,0.041-39.801-0.033
	c-0.002-0.153-0.012-0.307-0.012-0.462c0-20.623,16.78-37.405,37.404-37.405S82.796,24.77,82.796,45.393
	c0,19.873-15.581,36.17-35.167,37.332c-3.808-0.209-4.646-2.299-4.646-6.587V55.252H32.698v19.862c0,4.353-1.063,4.879-2.131,4.609
	C20.252,75.247,12.334,66.254,9.322,55.252H1.09c4.517,20.301,22.66,35.533,44.302,35.533c25.029,0,45.392-20.363,45.392-45.393
	C90.784,20.363,70.422,0,45.393,0"/>
</svg>
